<svg width="256" height="256" viewBox="0 0 256 256" xmlns="http://www.w3.org/2000/svg" role="img" aria-label="Tooruba icon idea toolbar dock">
  <defs>
    <linearGradient id="bg3" x1="18" y1="22" x2="234" y2="236" gradientUnits="userSpaceOnUse">
      <stop offset="0" stop-color="#1B2E43"/>
      <stop offset="1" stop-color="#0B1219"/>
    </linearGradient>
    <linearGradient id="dock" x1="34" y1="82" x2="222" y2="206" gradientUnits="userSpaceOnUse">
      <stop offset="0" stop-color="#24415D"/>
      <stop offset="1" stop-color="#162A3B"/>
    </linearGradient>
  </defs>
  <rect x="16" y="16" width="224" height="224" rx="48" fill="url(#bg3)"/>
  <rect x="34" y="50" width="188" height="24" rx="12" fill="#C8DDF3" opacity="0.9"/>
  <rect x="34" y="88" width="188" height="120" rx="28" fill="url(#dock)" stroke="#88B1D7" stroke-width="5"/>
  <rect x="52" y="110" width="34" height="76" rx="14" fill="#EAF3FC"/>
  <rect x="96" y="110" width="34" height="76" rx="14" fill="#EAF3FC"/>
  <rect x="140" y="110" width="34" height="76" rx="14" fill="#DCEAF8"/>
  <rect x="184" y="110" width="20" height="76" rx="10" fill="#EAF3FC"/>
  <path d="M63 148h12" stroke="#20344A" stroke-width="8" stroke-linecap="round"/>
  <path d="M107 132h12" stroke="#17324A" stroke-width="8" stroke-linecap="round"/>
  <path d="M107 148h12" stroke="#17324A" stroke-width="8" stroke-linecap="round"/>
  <path d="M107 164h12" stroke="#17324A" stroke-width="8" stroke-linecap="round"/>
  <circle cx="157" cy="148" r="8" fill="#1E3347"/>
</svg>
